<?xml version="1.0" encoding="UTF-8"?>
<svg id="Layer_1" xmlns="http://www.w3.org/2000/svg" version="1.1" viewBox="0 0 4000 2416">
  <!-- Generator: Adobe Illustrator 30.5.1, SVG Export Plug-In . SVG Version: 2.1.4 Build 3)  -->
  <defs>
    <style>
      .st0 {
        fill: #be5514;
      }

      .st1 {
        fill: #fae9cf;
      }

      .st2 {
        fill: #065864;
      }
    </style>
  </defs>
  <rect class="st1" x="-15.84" y="4.42" width="4028.87" height="2418.26"/>
  <g>
    <g>
      <path class="st2" d="M2366.2,1400.01c-16.92-24.41-27.96-51.23-27.11-82l2.14-76.14c1.32-47.39,1.08-92.56-11.97-138.2-13-45.49-43.15-84.08-86.77-103.22-54.45-23.86-112.71-9.69-157.32,27.08-18.82,15.54-25.41,38.55-11.8,58.43,13.35,19.44,38.41,22.04,58.72,9.28l20.14-12.62c22.13-13.88,54.13-15.02,74.41,3.51,21.28,19.44,31.18,48.16,32.03,76.7-53.89-25.32-114.87-18.85-159.02,19.55-42.51,36.97-57.93,92.24-42.21,145.46,19.79,67.07,88.7,101.46,154.25,74.68,19.41-7.9,35.45-21.55,53.4-36.12,8.43,54.51,27.55,106.41,81.03,94.5,24.53-8.02,35.42-38.73,20.08-60.89ZM2195.24,1334.17c-28.63,8.75-53.98-5.09-62.62-31.15-12-36.07,10.68-74.53,48.59-82.79,28.04-6.09,62.88.12,81.73,22.45.23,40.93-28.51,79.51-67.71,91.48Z"/>
      <path class="st0" d="M2705.34,1073.78c-17.15,9.92-29.77,22.37-40.66,38.61-26.2,39.2-54.57,31.59-66.33,56.59-9.98,21.17-17.48,41.86-22.95,64.87l-46.19,193.36c-5.24,21.9-23.36,36.5-44.17,36.71-20.17.18-41.01-14.34-45.99-37.85l-60.22-284.1c-7.08-33.43-17.24-64.08-31.76-94.06-12.68-26.23-31.94-45.73-55.56-61.48-17.18-11.45-21.55-31.97-14.14-50.21,8.96-22.04,30.06-31.59,52.75-23.36,42.27,15.31,73.33,48.36,91.63,89.73,37.15,84.02,48.01,190.08,63.38,283.93l28.98-125.56s17.45-48.07,17.45-48.07c-5.28-19.71-9.8-39.36-13.74-59.36-3.97-20.11-9.35-39.91-16.38-59.17-.79-2.17-1.6-4.34-2.43-6.49,5.83-11.12,26.99-10.86,33.11.88l15.19,29.07c2.14,4.1,7.32,10.13,11.18,10.86,15.78,3.04,23.45-27.81,29.27-51.43,1.61-6.53,3.22-13.06,4.84-19.6,1.89-7.66,3.4-15.41,5.5-23.02,2.02-7.33,3.78-13.28,11.02-16.9,11.64-5.83,15.83,7.91,15.86,16.36.04,12.18-2.85,24.34-4.72,36.31s-3.71,24.26-1.49,36.12c9.25-15.54,18.51-31.09,27.76-46.63,5.47-9.18,10.85-18.42,16.32-27.58,3.52-5.91,14.03-10.03,20.47-6.21,18.35,10.89-24.09,63.35-31.7,98.51.21-.98,6.45-3.98,7.51-4.74,2.61-1.89,5.1-3.93,7.52-6.06,4.99-4.4,9.63-9.18,14.19-14.03,9.8-10.42,20.82-26.56,35.74-29.74,4.77-1.02,9.45.43,10.77,5.43,2.4,9.11-2.14,14.25-7.55,20.92-5.93,7.31-11.86,14.62-17.79,21.93-9.11,11.24-18.22,22.47-27.33,33.71l-.02.03c.29-.36,7.27-.07,8.3-.25,2.97-.52,5.85-1.47,8.64-2.6,5.92-2.4,11.42-5.69,16.93-8.87,8.54-4.93,20.18-12.67,30.35-7.96,2.63,1.22,4.47,3.21,4.09,6.32-.87,7.29-9.22,14.18-14.36,18.65-7.16,6.22-15.03,11.69-23.24,16.44Z"/>
      <path class="st2" d="M2883.62,1375.07c-19.79,44.99-58.34,80.15-106.88,88.7-66.51,11.74-127.96-24.3-149.8-87.32-20.23-58.4-17.74-115.19-2.66-176.7,6.32-25.7,29.45-36.77,49.56-32.23,24.56,5.56,37.38,26.2,32.41,50.94-6.44,31.91-10.13,63.7-8.26,96.25,1.84,32.73,19.55,66.28,49.15,69.03,40.28,3.75,61.18-34.48,68.65-76.29,8.49-47.6,5.74-94.38-4.42-141.69-4.36-20.29-3.51-41.57,9.87-57.79,10.89-13.2,28.92-18.03,45.76-14.08,15.02,3.54,27.11,18.65,30.68,35.98,16.77,81.47,19.61,168.59-14.05,245.2Z"/>
      <path class="st2" d="M2874.57,1030.6c-5.3,6.76-17.15,11.86-27.46,12.5-42.21,2.66-36.51-40.28-58.64-84.31-25.64-50.97-75.73-82.55-131.82-83.43-44.23-.7-80.39,22.63-101.2,60.54-5.77,10.51-15.19,15.98-25.85,12.71-34.25-10.63-.82-71.72,49.88-103.25,62.56-38.91,141.89-34.92,203.05,7.14,50.56,34.81,84.95,86.53,99.24,146.37,2.63,11.04-.56,23.24-7.2,31.73Z"/>
      <path class="st2" d="M1654.52,1578.05c-96.55,32.82-201.9,24.88-289.58-28.43-87.41-53.1-140.84-143.82-152.75-243.71l-30.83,12.03,10.98,169.47c1.76,27.05-11.24,48.3-38.38,52.72-24.03,3.92-48.33-11.45-49.41-38.23l-13.2-327.31c-3.51-86.51,1.46-169.58,10.19-254.98,2.43-23.92,23.83-37.47,45.23-36.45,21.87,1.02,39.58,19.41,38.47,43.15l-4.45,96.11c-3.25,69.82-4.74,137.62-2.37,207.64,44.79-16.66,79.42-49.21,102.14-90.81,11.48-21.08,17.56-43.3,25.18-65.78,7.49-22.13,33.34-28.04,51.73-21.05,20.4,7.76,33.05,28.63,27.87,51.55-14.58,64.58-52.25,120.49-106.15,162.09,4.8,92.39,60.1,176.29,144,216.28,62.68,29.86,130.83,32,197.54,10.48,27.31-8.81,53.51-.73,62.5,24.09,9.07,25.18-1.55,51.9-28.69,61.12Z"/>
      <path class="st2" d="M1837.24,1392.16c-8.84-16.48-28.57-26.08-47.92-19.06-38.06,13.73-76.73-5.83-88.58-45.76-17.83-59.92,5.18-121.81-10.36-199.53-6.06-30.47-17.27-59.57-35.95-83.64-52.93-68.15-147.75-73.01-211.48-17.68-18.65,16.22-28.19,38.03-13.2,59.46,13.44,19.23,40.37,23.16,60.25,7.96,11.18-8.55,24.91-16.31,38.44-19.7,27.2-6.85,52.99,5.24,66.8,28.66,10.83,18.33,17.01,38.32,19.17,59.37-68.21-29.89-145.87-12.68-185.45,49.8-25.09,39.61-29.33,83.96-13.03,125.23,26.35,66.8,103.07,94.7,166.25,58.17l43.94-32.44c18.79,66.45,76.55,107.03,143.36,100.85,21.31-1.99,42.07-6.32,57.99-20.37,14.99-13.29,18.59-34.89,9.78-51.32ZM1512.01,1332.27c-25.29-11.45-32.64-40.69-25.47-65.81,6.41-22.48,19.99-38.35,43.82-44.99,27.99-7.79,66.98-3.57,86.71,21.08,2.22,53.84-58.52,110.77-105.06,89.73Z"/>
      <path class="st2" d="M2026.3,1456.57c-18.5,13.09-45.05,10.33-60.07-7.85-33.52-40.63-35.19-100.88-30.39-154.19,4.98-55.36,22.1-177.78-21.08-191.63-25.64-8.23-48.42,14.11-60.3,42.48-18.65,44.47-24.82,91.92-24,140.08.47,26.38-17.27,44.7-43.56,44.67-23.59-.03-42.21-16.66-41.8-41.77,1.2-79.48-2.72-157.17-8.69-236.51-1.67-22.1,8.14-41.31,28.6-47.13,18.03-5.18,42.56.76,49.09,22.57l8.37,48.42c26.32-42.86,78.45-62.15,125.82-44.7,29.65,10.89,50.85,35.01,61.18,64.49,9.25,26.32,14.49,53.72,12.91,82.11l-6.5,116.66c-2.14,38.2,3.92,73.45,22.07,106.44,10.63,19.35,4.74,44.26-11.65,55.85Z"/>
    </g>
    <g>
      <path class="st0" d="M1752.04,1549.95h-17.69v-32.8c0-1.72-.44-3.01-1.32-3.89-.88-.88-2.13-1.32-3.76-1.32s-2.95.44-3.83,1.32-1.32,2.18-1.32,3.89v36.23c0,1.63.45,2.9,1.35,3.83.9.92,2.19,1.39,3.86,1.39h22.7c1.41,0,2.5-.37,3.27-1.12.77-.75,1.15-1.83,1.15-3.23s-.39-2.42-1.15-3.17c-.77-.75-1.86-1.12-3.27-1.12Z"/>
      <path class="st0" d="M1819.95,1520.05c1.32,0,2.32-.34,3-1.02s1.02-1.68,1.02-3-.34-2.25-1.02-2.94c-.68-.68-1.68-1.02-3-1.02h-23.03c-1.72,0-3.04.46-3.96,1.39-.92.92-1.39,2.24-1.39,3.96v35.84c0,1.72.46,3.04,1.39,3.96s2.24,1.39,3.96,1.39h23.03c1.32,0,2.32-.34,3-1.02s1.02-1.68,1.02-3-.34-2.25-1.02-2.94c-.68-.68-1.68-1.02-3-1.02h-18.61v-11.62h17.09c1.36,0,2.39-.34,3.07-1.02.68-.68,1.02-1.68,1.02-3s-.34-2.32-1.02-3c-.68-.68-1.71-1.02-3.07-1.02h-17.09v-10.89h18.61Z"/>
      <path class="st0" d="M1894.14,1512.06h-33.59c-1.36,0-2.42.36-3.17,1.09-.75.73-1.12,1.77-1.12,3.13s.37,2.35,1.12,3.1c.75.75,1.8,1.12,3.17,1.12h11.68v33.4c0,1.67.44,2.97,1.32,3.89.88.92,2.16,1.39,3.83,1.39s2.94-.46,3.79-1.39c.86-.92,1.29-2.22,1.29-3.89v-33.4h11.68c1.36,0,2.42-.37,3.17-1.12.75-.75,1.12-1.78,1.12-3.1s-.37-2.41-1.12-3.13c-.75-.73-1.8-1.09-3.17-1.09Z"/>
      <path class="st0" d="M1998.74,1512.06h-12.87c-1.72,0-3.04.46-3.96,1.39-.92.92-1.39,2.24-1.39,3.96v35.84c0,1.72.46,3.04,1.39,3.96s2.24,1.39,3.96,1.39h12.87c4,0,7.55-.52,10.63-1.55,3.08-1.03,5.68-2.54,7.79-4.52,2.11-1.98,3.73-4.41,4.85-7.29,1.12-2.88,1.68-6.19,1.68-9.93,0-7.44-2.17-13.17-6.5-17.19-4.33-4.03-10.48-6.04-18.45-6.04ZM2012.08,1541.86c-.62,1.87-1.54,3.42-2.77,4.65-1.23,1.23-2.77,2.16-4.62,2.77-1.85.62-4.03.92-6.53.92h-7.39v-29.77h7.39c4.93,0,8.63,1.22,11.12,3.66,2.49,2.44,3.73,6.17,3.73,11.19,0,2.51-.31,4.7-.92,6.57Z"/>
      <path class="st0" d="M2094.18,1544.8c-1.01-1.85-2.21-3.22-3.6-4.12-.65-.42-1.35-.73-2.1-.96,1-.26,1.96-.58,2.83-.99,2.4-1.14,4.23-2.77,5.51-4.88s1.91-4.62,1.91-7.52c0-4.49-1.41-7.99-4.22-10.49-2.82-2.51-6.82-3.76-12.01-3.76h-16.04c-1.67,0-2.96.44-3.86,1.32-.9.88-1.35,2.18-1.35,3.89v36.63c0,1.67.44,2.97,1.32,3.89.88.92,2.16,1.39,3.83,1.39s2.94-.46,3.79-1.39c.86-.92,1.29-2.22,1.29-3.89v-13.33h5.02c1.36,0,2.52.22,3.47.66.95.44,1.75,1.28,2.41,2.51l6.34,11.68c.7,1.28,1.51,2.22,2.41,2.84.9.62,2.08.92,3.53.92s2.55-.33,3.3-.99,1.14-1.52,1.19-2.57c.04-1.06-.24-2.13-.86-3.23l-4.09-7.59ZM2080.65,1533.18h-9.17v-13.13h9.17c2.73,0,4.79.55,6.17,1.65,1.39,1.1,2.08,2.73,2.08,4.88s-.69,3.85-2.08,4.95c-1.39,1.1-3.44,1.65-6.17,1.65Z"/>
      <path class="st0" d="M2165.2,1520.05c1.32,0,2.32-.34,3-1.02s1.02-1.68,1.02-3-.34-2.25-1.02-2.94c-.68-.68-1.68-1.02-3-1.02h-23.03c-1.72,0-3.04.46-3.96,1.39s-1.39,2.24-1.39,3.96v35.84c0,1.72.46,3.04,1.39,3.96s2.24,1.39,3.96,1.39h23.03c1.32,0,2.32-.34,3-1.02s1.02-1.68,1.02-3-.34-2.25-1.02-2.94c-.68-.68-1.68-1.02-3-1.02h-18.61v-11.62h17.09c1.36,0,2.39-.34,3.07-1.02s1.02-1.68,1.02-3-.34-2.32-1.02-3c-.68-.68-1.71-1.02-3.07-1.02h-17.09v-10.89h18.61Z"/>
      <path class="st0" d="M2231.59,1515.76c-.66-1.5-1.48-2.58-2.44-3.27-.97-.68-2.09-1.02-3.37-1.02s-2.4.34-3.37,1.02c-.97.68-1.8,1.77-2.51,3.27l-16.9,37.03c-.57,1.19-.76,2.27-.56,3.23.2.97.68,1.74,1.45,2.31.77.57,1.77.86,3,.86,1.41,0,2.48-.34,3.2-1.02s1.42-1.79,2.08-3.33l2.69-6.34h21.77l2.73,6.34c.62,1.5,1.33,2.6,2.15,3.3.81.7,1.97,1.06,3.46,1.06,1.19,0,2.16-.28,2.9-.83.75-.55,1.2-1.32,1.35-2.31.15-.99-.06-2.08-.63-3.27l-17.03-37.03ZM2225.65,1522.95h.13l7.43,17.56h-14.93l7.37-17.56Z"/>
      <path class="st0" d="M2328.61,1511.47c-1.28,0-2.3.25-3.07.76-.77.51-1.48,1.38-2.14,2.61l-14.12,25.8-14.12-25.8c-.66-1.23-1.38-2.1-2.14-2.61-.77-.5-1.82-.76-3.14-.76-1.5,0-2.67.42-3.53,1.25-.86.84-1.29,2-1.29,3.5v38.21c0,1.5.4,2.66,1.19,3.5.79.84,1.94,1.25,3.43,1.25s2.69-.42,3.46-1.25c.77-.83,1.15-2,1.15-3.5v-23.98l10.82,19.23c.48.79,1.03,1.41,1.65,1.85.62.44,1.41.66,2.38.66s1.75-.21,2.34-.63c.59-.42,1.16-1.04,1.68-1.88l10.82-19.38v24.13c0,1.5.41,2.66,1.22,3.5.81.84,1.97,1.25,3.47,1.25s2.64-.42,3.43-1.25c.79-.83,1.19-2,1.19-3.5v-38.21c0-1.5-.41-2.66-1.22-3.5-.81-.83-1.97-1.25-3.46-1.25Z"/>
      <path class="st0" d="M2395.21,1532.26l-7.46-1.58c-2.29-.48-3.89-1.12-4.82-1.91s-1.39-1.83-1.39-3.1c0-1.14.34-2.16,1.02-3.04.68-.88,1.67-1.56,2.97-2.05,1.3-.48,2.87-.73,4.72-.73,1.72,0,3.39.18,5.02.53,1.63.35,3.17.9,4.62,1.65,1.19.57,2.2.77,3.04.59.83-.18,1.53-.57,2.08-1.19.55-.62.88-1.33.99-2.15.11-.81,0-1.63-.33-2.44-.33-.81-.94-1.48-1.82-2.01-1.8-1.14-3.89-2.01-6.27-2.61-2.38-.59-4.8-.89-7.26-.89-2.77,0-5.31.35-7.62,1.06-2.31.7-4.3,1.72-5.97,3.04-1.67,1.32-2.97,2.88-3.89,4.69-.92,1.8-1.39,3.81-1.39,6.01,0,3.48,1.02,6.28,3.07,8.42,2.05,2.13,5.18,3.64,9.41,4.52l7.46,1.58c2.42.53,4.11,1.17,5.08,1.91.97.75,1.45,1.76,1.45,3.04,0,1.5-.68,2.74-2.05,3.73-1.36.99-3.65,1.48-6.86,1.48-2.11,0-4.24-.24-6.37-.73-2.13-.48-4.1-1.23-5.91-2.24-1.06-.53-2.01-.69-2.87-.5-.86.2-1.56.64-2.11,1.32-.55.68-.88,1.46-.99,2.34-.11.88.03,1.75.43,2.61.4.86,1.08,1.55,2.05,2.08,1.36.79,2.91,1.45,4.65,1.98,1.74.53,3.56.93,5.48,1.22,1.91.29,3.79.43,5.64.43,2.9,0,5.52-.34,7.85-1.02,2.33-.68,4.33-1.66,6.01-2.94,1.67-1.28,2.95-2.81,3.83-4.59.88-1.78,1.32-3.77,1.32-5.97,0-3.34-1.06-6.04-3.17-8.08-2.11-2.05-5.32-3.53-9.64-4.46Z"/>
      <path class="st0" d="M2527.33,1511.47c-1.63,0-2.88.44-3.76,1.32-.88.88-1.32,2.18-1.32,3.89v22.51c0,3.78-.85,6.63-2.54,8.55-1.69,1.91-4.17,2.87-7.42,2.87s-5.74-.96-7.46-2.87-2.57-4.76-2.57-8.55v-22.51c0-1.72-.44-3.01-1.32-3.89-.88-.88-2.13-1.32-3.76-1.32s-2.95.44-3.83,1.32c-.88.88-1.32,2.18-1.32,3.89v22.44c0,3.34.43,6.28,1.29,8.81.86,2.53,2.15,4.63,3.86,6.3,1.72,1.67,3.84,2.94,6.37,3.79,2.53.86,5.45,1.29,8.75,1.29,4.4,0,8.08-.75,11.05-2.24,2.97-1.5,5.21-3.75,6.73-6.77,1.52-3.01,2.28-6.74,2.28-11.19v-22.44c0-1.72-.43-3.01-1.29-3.89-.86-.88-2.1-1.32-3.73-1.32Z"/>
      <path class="st0" d="M2606.6,1511.47c-1.54,0-2.72.43-3.53,1.29s-1.22,2.06-1.22,3.6v25.32l-21.38-27.23c-.84-1.06-1.57-1.82-2.21-2.28-.64-.46-1.55-.69-2.74-.69-1.36,0-2.45.44-3.27,1.32-.81.88-1.22,2.16-1.22,3.83v37.62c0,1.58.41,2.81,1.22,3.66.81.86,1.99,1.29,3.53,1.29s2.77-.43,3.56-1.29,1.19-2.08,1.19-3.66v-25.4l21.38,27.31c.83,1.06,1.62,1.83,2.34,2.31.73.48,1.71.73,2.94.73s2.29-.43,3.04-1.29,1.12-2.01,1.12-3.47v-38.08c0-1.54-.41-2.74-1.22-3.6-.81-.86-1.99-1.29-3.53-1.29Z"/>
      <path class="st0" d="M2678.28,1512.06h-22.57c-1.72,0-3.04.46-3.96,1.39s-1.39,2.24-1.39,3.96v36.37c0,1.76.45,3.1,1.35,4.03.9.92,2.19,1.39,3.86,1.39,3.34,0,5.02-1.8,5.02-5.41v-14.39h16.24c1.32,0,2.33-.35,3.04-1.06.7-.7,1.06-1.69,1.06-2.97s-.35-2.25-1.06-2.94c-.71-.68-1.72-1.02-3.04-1.02h-16.24v-11.35h17.69c1.32,0,2.32-.34,3-1.02.68-.68,1.02-1.68,1.02-3s-.34-2.25-1.02-2.94c-.68-.68-1.68-1.02-3-1.02Z"/>
      <path class="st0" d="M2750.68,1514.31c-3.43-1.98-7.48-2.97-12.14-2.97-3.43,0-6.57.57-9.4,1.72-2.84,1.14-5.27,2.76-7.29,4.85-2.02,2.09-3.58,4.6-4.65,7.52-1.08,2.93-1.62,6.22-1.62,9.87,0,4.8.96,9,2.87,12.61,1.91,3.61,4.6,6.41,8.05,8.42,3.45,2,7.47,3,12.04,3,3.48,0,6.62-.57,9.44-1.72,2.82-1.14,5.24-2.77,7.26-4.88,2.02-2.11,3.59-4.64,4.69-7.59,1.1-2.95,1.65-6.25,1.65-9.9,0-4.8-.96-8.99-2.87-12.57-1.91-3.59-4.59-6.37-8.02-8.35ZM2749.39,1543.51c-.99,2.31-2.4,4.07-4.22,5.28-1.83,1.21-4.04,1.81-6.63,1.81-3.87,0-6.89-1.35-9.04-4.06-2.16-2.71-3.23-6.46-3.23-11.25,0-3.21.48-5.96,1.45-8.25.97-2.29,2.38-4.03,4.22-5.21s4.05-1.78,6.6-1.78c3.92,0,6.95,1.33,9.11,3.99,2.16,2.66,3.23,6.41,3.23,11.25,0,3.17-.5,5.91-1.49,8.22Z"/>
      <path class="st0" d="M2827.04,1549.95h-17.69v-32.8c0-1.72-.44-3.01-1.32-3.89-.88-.88-2.13-1.32-3.76-1.32s-2.95.44-3.83,1.32c-.88.88-1.32,2.18-1.32,3.89v36.23c0,1.63.45,2.9,1.35,3.83.9.92,2.19,1.39,3.86,1.39h22.7c1.41,0,2.5-.37,3.27-1.12.77-.75,1.16-1.83,1.16-3.23s-.39-2.42-1.16-3.17c-.77-.75-1.86-1.12-3.27-1.12Z"/>
      <path class="st0" d="M2903.24,1518.1c-4.33-4.03-10.48-6.04-18.45-6.04h-12.87c-1.72,0-3.04.46-3.96,1.39s-1.39,2.24-1.39,3.96v35.84c0,1.72.46,3.04,1.39,3.96.92.92,2.24,1.39,3.96,1.39h12.87c4,0,7.54-.52,10.63-1.55,3.08-1.03,5.68-2.54,7.79-4.52,2.11-1.98,3.73-4.41,4.85-7.29,1.12-2.88,1.68-6.19,1.68-9.93,0-7.44-2.17-13.17-6.5-17.19ZM2898.12,1541.86c-.62,1.87-1.54,3.42-2.77,4.65-1.23,1.23-2.77,2.16-4.62,2.77-1.85.62-4.03.92-6.53.92h-7.39v-29.77h7.39c4.93,0,8.63,1.22,11.12,3.66,2.49,2.44,3.73,6.17,3.73,11.19,0,2.51-.31,4.7-.92,6.57Z"/>
    </g>
  </g>
</svg>