<?xml version="1.0" encoding="UTF-8"?>
<svg id="Layer_1" xmlns="http://www.w3.org/2000/svg" version="1.1" viewBox="0 0 1080 1080">
  <!-- Generator: Adobe Illustrator 30.5.1, SVG Export Plug-In . SVG Version: 2.1.4 Build 3)  -->
  <defs>
    <style>
      .st0 {
        fill: #be5514;
      }

      .st1 {
        fill: #fae9cf;
      }

      .st2 {
        fill: #065864;
      }
    </style>
  </defs>
  <rect class="st1" x="-.78" y="0" width="1081.57" height="1080"/>
  <g>
    <g>
      <path class="st2" d="M668.31,607.28c-5.93-8.55-9.8-17.95-9.5-28.73l.75-26.68c.46-16.61.38-32.43-4.2-48.42-4.55-15.94-15.12-29.46-30.4-36.17-19.08-8.36-39.49-3.4-55.12,9.49-6.6,5.45-8.9,13.51-4.13,20.47,4.68,6.81,13.46,7.72,20.58,3.25l7.06-4.42c7.75-4.86,18.97-5.26,26.07,1.23,7.46,6.81,10.92,16.87,11.22,26.87-18.88-8.87-40.25-6.61-55.72,6.85-14.89,12.95-20.3,32.32-14.79,50.97,6.93,23.5,31.08,35.55,54.04,26.17,6.8-2.77,12.42-7.55,18.71-12.66,2.95,19.1,9.65,37.28,28.39,33.11,8.6-2.81,12.41-13.57,7.04-21.33ZM608.41,584.21c-10.03,3.07-18.91-1.78-21.94-10.91-4.21-12.64,3.74-26.11,17.03-29.01,9.83-2.13,22.03.04,28.64,7.87.08,14.34-9.99,27.86-23.72,32.05Z"/>
      <path class="st0" d="M787.13,492.97c-6.01,3.48-10.43,7.84-14.25,13.53-9.18,13.73-19.12,11.07-23.24,19.83-3.5,7.42-6.12,14.67-8.04,22.73l-16.19,67.75c-1.84,7.67-8.19,12.79-15.48,12.86-7.07.06-14.37-5.03-16.11-13.26l-21.1-99.54c-2.48-11.71-6.04-22.45-11.13-32.96-4.44-9.19-11.19-16.02-19.47-21.54-6.02-4.01-7.55-11.2-4.95-17.59,3.14-7.72,10.53-11.07,18.48-8.19,14.81,5.36,25.69,16.94,32.1,31.44,13.02,29.44,16.82,66.6,22.21,99.48l10.15-43.99s6.11-16.84,6.11-16.84c-1.85-6.91-3.43-13.79-4.81-20.8-1.39-7.05-3.28-13.98-5.74-20.73-.28-.76-.56-1.52-.85-2.28,2.04-3.9,9.46-3.81,11.6.31l5.32,10.19c.75,1.44,2.56,3.55,3.92,3.81,5.53,1.07,8.22-9.74,10.26-18.02.56-2.29,1.13-4.58,1.69-6.87.66-2.68,1.19-5.4,1.93-8.06.71-2.57,1.32-4.65,3.86-5.92,4.08-2.04,5.55,2.77,5.56,5.73.02,4.27-1,8.53-1.65,12.72s-1.3,8.5-.52,12.65c3.24-5.45,6.48-10.89,9.73-16.34,1.91-3.22,3.8-6.45,5.72-9.66,1.23-2.07,4.92-3.52,7.17-2.18,6.43,3.82-8.44,22.2-11.11,34.51.07-.34,2.26-1.39,2.63-1.66.91-.66,1.79-1.38,2.63-2.12,1.75-1.54,3.37-3.22,4.97-4.92,3.43-3.65,7.3-9.31,12.52-10.42,1.67-.36,3.31.15,3.77,1.9.84,3.19-.75,4.99-2.64,7.33-2.08,2.56-4.15,5.12-6.23,7.69-3.19,3.94-6.38,7.87-9.58,11.81h0c.1-.12,2.55-.01,2.91-.08,1.04-.18,2.05-.51,3.03-.91,2.07-.84,4-1.99,5.93-3.11,2.99-1.73,7.07-4.44,10.63-2.79.92.43,1.56,1.13,1.43,2.21-.31,2.55-3.23,4.97-5.03,6.53-2.51,2.18-5.27,4.1-8.14,5.76Z"/>
      <path class="st2" d="M849.6,598.54c-6.93,15.76-20.44,28.08-37.45,31.08-23.3,4.11-44.83-8.51-52.49-30.6-7.09-20.46-6.22-40.36-.93-61.91,2.22-9.01,10.32-12.88,17.36-11.29,8.61,1.95,13.1,9.18,11.35,17.85-2.26,11.18-3.55,22.32-2.89,33.72.65,11.47,6.85,23.22,17.22,24.19,14.11,1.31,21.44-12.08,24.05-26.73,2.97-16.68,2.01-33.07-1.55-49.64-1.53-7.11-1.23-14.56,3.46-20.25,3.82-4.63,10.13-6.32,16.03-4.93,5.26,1.24,9.5,6.53,10.75,12.61,5.88,28.55,6.87,59.07-4.92,85.91Z"/>
      <path class="st2" d="M846.43,477.84c-1.86,2.37-6.01,4.15-9.62,4.38-14.79.93-12.79-14.11-20.54-29.54-8.99-17.86-26.53-28.92-46.19-29.23-15.5-.25-28.17,7.93-35.46,21.21-2.02,3.68-5.32,5.6-9.06,4.45-12-3.72-.29-25.13,17.48-36.18,21.92-13.63,49.72-12.24,71.14,2.5,17.71,12.2,29.77,30.32,34.77,51.28.92,3.87-.19,8.14-2.52,11.12Z"/>
      <path class="st2" d="M418.95,669.66c-33.83,11.5-70.74,8.72-101.46-9.96-30.63-18.61-49.35-50.39-53.52-85.39l-10.8,4.22,3.85,59.38c.62,9.48-3.94,16.92-13.45,18.47-8.42,1.37-16.93-4.01-17.31-13.4l-4.63-114.68c-1.23-30.31.51-59.42,3.57-89.34.85-8.38,8.35-13.13,15.85-12.77,7.66.36,13.87,6.8,13.48,15.12l-1.56,33.67c-1.14,24.46-1.66,48.22-.83,72.75,15.69-5.84,27.83-17.24,35.79-31.82,4.02-7.38,6.15-15.17,8.82-23.05,2.63-7.75,11.68-9.83,18.12-7.37,7.15,2.72,11.58,10.03,9.76,18.06-5.11,22.63-18.31,42.22-37.19,56.79,1.68,32.37,21.06,61.77,50.45,75.78,21.96,10.46,45.84,11.21,69.21,3.67,9.57-3.09,18.75-.26,21.9,8.44,3.18,8.82-.54,18.19-10.05,21.42Z"/>
      <path class="st2" d="M482.97,604.53c-3.1-5.77-10.01-9.14-16.79-6.68-13.33,4.81-26.88-2.04-31.04-16.03-6.25-21,1.82-42.68-3.63-69.91-2.12-10.68-6.05-20.87-12.6-29.3-18.54-23.88-51.77-25.58-74.1-6.2-6.53,5.68-9.88,13.32-4.63,20.83,4.71,6.74,14.14,8.11,21.11,2.79,3.92-2.99,8.73-5.71,13.47-6.9,9.53-2.4,18.57,1.84,23.41,10.04,3.8,6.42,5.96,13.43,6.72,20.8-23.9-10.47-51.11-4.44-64.98,17.45-8.79,13.88-10.28,29.42-4.56,43.88,9.23,23.41,36.11,33.18,58.25,20.38l15.4-11.36c6.58,23.28,26.82,37.5,50.23,35.34,7.47-.7,14.74-2.22,20.32-7.14,5.25-4.66,6.51-12.23,3.43-17.98ZM369.02,583.54c-8.86-4.01-11.44-14.26-8.92-23.06,2.25-7.88,7.01-13.44,15.35-15.76,9.81-2.73,23.47-1.25,30.38,7.38.78,18.86-20.5,38.81-36.81,31.44Z"/>
      <path class="st2" d="M549.21,627.09c-6.48,4.58-15.79,3.62-21.05-2.75-11.74-14.24-12.33-35.35-10.65-54.02,1.74-19.4,7.74-62.29-7.39-67.14-8.99-2.88-16.96,4.94-21.13,14.88-6.53,15.58-8.7,32.21-8.41,49.08.16,9.24-6.05,15.66-15.26,15.65-8.27-.01-14.79-5.84-14.65-14.64.42-27.85-.95-55.07-3.05-82.87-.58-7.74,2.85-14.47,10.02-16.51,6.32-1.82,14.91.27,17.2,7.91l2.93,16.97c9.22-15.02,27.49-21.78,44.08-15.66,10.39,3.82,17.82,12.27,21.44,22.6,3.24,9.22,5.08,18.82,4.52,28.77l-2.28,40.87c-.75,13.39,1.37,25.73,7.73,37.29,3.72,6.78,1.66,15.51-4.08,19.57Z"/>
    </g>
    <g>
      <path class="st0" d="M453.12,659.81h-6.2v-11.49c0-.6-.15-1.06-.46-1.36-.31-.31-.75-.46-1.32-.46s-1.03.15-1.34.46-.46.76-.46,1.36v12.7c0,.57.16,1.02.47,1.34.32.32.77.49,1.35.49h7.96c.49,0,.87-.13,1.14-.39.27-.26.4-.64.4-1.13s-.14-.85-.4-1.11c-.27-.26-.65-.39-1.14-.39Z"/>
      <path class="st0" d="M476.92,649.33c.46,0,.81-.12,1.05-.36s.36-.59.36-1.05-.12-.79-.36-1.03c-.24-.24-.59-.36-1.05-.36h-8.07c-.6,0-1.06.16-1.39.49-.32.32-.49.79-.49,1.39v12.56c0,.6.16,1.06.49,1.39s.79.49,1.39.49h8.07c.46,0,.81-.12,1.05-.36s.36-.59.36-1.05-.12-.79-.36-1.03c-.24-.24-.59-.36-1.05-.36h-6.52v-4.07h5.99c.48,0,.84-.12,1.08-.36.24-.24.36-.59.36-1.05s-.12-.81-.36-1.05c-.24-.24-.6-.36-1.08-.36h-5.99v-3.82h6.52Z"/>
      <path class="st0" d="M502.91,646.54h-11.77c-.48,0-.85.13-1.11.38-.26.25-.39.62-.39,1.1s.13.82.39,1.09c.26.26.63.39,1.11.39h4.09v11.7c0,.59.15,1.04.46,1.36.31.32.76.49,1.34.49s1.03-.16,1.33-.49c.3-.32.45-.78.45-1.36v-11.7h4.09c.48,0,.85-.13,1.11-.39.26-.26.39-.62.39-1.09s-.13-.84-.39-1.1c-.26-.25-.63-.38-1.11-.38Z"/>
      <path class="st0" d="M539.56,646.54h-4.51c-.6,0-1.06.16-1.39.49-.32.32-.49.79-.49,1.39v12.56c0,.6.16,1.06.49,1.39s.79.49,1.39.49h4.51c1.4,0,2.64-.18,3.72-.54,1.08-.36,1.99-.89,2.73-1.58.74-.69,1.31-1.55,1.7-2.56.39-1.01.59-2.17.59-3.48,0-2.61-.76-4.61-2.28-6.02-1.52-1.41-3.67-2.12-6.46-2.12ZM544.23,656.98c-.22.66-.54,1.2-.97,1.63-.43.43-.97.76-1.62.97-.65.22-1.41.32-2.29.32h-2.59v-10.43h2.59c1.73,0,3.03.43,3.9,1.28.87.86,1.31,2.16,1.31,3.92,0,.88-.11,1.65-.32,2.3Z"/>
      <path class="st0" d="M573,658.01c-.35-.65-.77-1.13-1.26-1.45-.23-.15-.47-.26-.74-.34.35-.09.69-.2.99-.35.84-.4,1.48-.97,1.93-1.71s.67-1.62.67-2.64c0-1.57-.49-2.8-1.48-3.68-.99-.88-2.39-1.32-4.21-1.32h-5.62c-.59,0-1.04.15-1.35.46-.32.31-.47.76-.47,1.36v12.83c0,.59.15,1.04.46,1.36.31.32.76.49,1.34.49s1.03-.16,1.33-.49c.3-.32.45-.78.45-1.36v-4.67h1.76c.48,0,.88.08,1.21.23.33.15.61.45.84.88l2.22,4.09c.25.45.53.78.84.99.32.22.73.32,1.24.32s.89-.12,1.16-.35.4-.53.42-.9c.02-.37-.08-.75-.3-1.13l-1.43-2.66ZM568.26,653.94h-3.21v-4.6h3.21c.96,0,1.68.19,2.16.58.49.39.73.96.73,1.71s-.24,1.35-.73,1.73c-.49.39-1.21.58-2.16.58Z"/>
      <path class="st0" d="M597.88,649.33c.46,0,.81-.12,1.05-.36s.36-.59.36-1.05-.12-.79-.36-1.03c-.24-.24-.59-.36-1.05-.36h-8.07c-.6,0-1.06.16-1.39.49s-.49.79-.49,1.39v12.56c0,.6.16,1.06.49,1.39.32.32.79.49,1.39.49h8.07c.46,0,.81-.12,1.05-.36s.36-.59.36-1.05-.12-.79-.36-1.03c-.24-.24-.59-.36-1.05-.36h-6.52v-4.07h5.99c.48,0,.84-.12,1.08-.36s.36-.59.36-1.05-.12-.81-.36-1.05c-.24-.24-.6-.36-1.08-.36h-5.99v-3.82h6.52Z"/>
      <path class="st0" d="M621.14,647.83c-.23-.52-.52-.91-.86-1.14-.34-.24-.73-.36-1.18-.36s-.84.12-1.18.36c-.34.24-.63.62-.88,1.14l-5.92,12.97c-.2.42-.27.79-.2,1.13.07.34.24.61.51.81.27.2.62.3,1.05.3.49,0,.87-.12,1.12-.36s.5-.63.73-1.17l.94-2.22h7.63l.96,2.22c.22.52.47.91.75,1.16.29.25.69.37,1.21.37.42,0,.76-.1,1.02-.29.26-.19.42-.46.47-.81.05-.35-.02-.73-.22-1.14l-5.97-12.97ZM619.06,650.35h.05l2.6,6.15h-5.23l2.58-6.15Z"/>
      <path class="st0" d="M655.14,646.33c-.45,0-.81.09-1.08.27-.27.18-.52.48-.75.91l-4.95,9.04-4.95-9.04c-.23-.43-.48-.74-.75-.91-.27-.18-.64-.27-1.1-.27-.52,0-.94.15-1.24.44-.3.29-.45.7-.45,1.23v13.39c0,.52.14.93.42,1.23.28.29.68.44,1.2.44s.94-.15,1.21-.44c.27-.29.4-.7.4-1.23v-8.4l3.79,6.74c.17.28.36.49.58.65.22.15.49.23.83.23s.61-.07.82-.22c.21-.15.4-.37.59-.66l3.79-6.79v8.45c0,.52.14.93.43,1.23.29.29.69.44,1.21.44s.92-.15,1.2-.44c.28-.29.42-.7.42-1.23v-13.39c0-.52-.14-.93-.43-1.23-.29-.29-.69-.44-1.21-.44Z"/>
      <path class="st0" d="M678.47,653.61l-2.61-.55c-.8-.17-1.36-.39-1.69-.67s-.49-.64-.49-1.09c0-.4.12-.76.36-1.06.24-.31.59-.55,1.04-.72.45-.17,1.01-.25,1.65-.25.6,0,1.19.06,1.76.19.57.12,1.11.32,1.62.58.42.2.77.27,1.06.21.29-.06.54-.2.73-.42.19-.22.31-.47.35-.75.04-.29,0-.57-.12-.86-.12-.29-.33-.52-.64-.71-.63-.4-1.36-.71-2.2-.91-.83-.21-1.68-.31-2.54-.31-.97,0-1.86.12-2.67.37-.81.25-1.51.6-2.09,1.06-.59.46-1.04,1.01-1.36,1.64-.32.63-.49,1.33-.49,2.1,0,1.22.36,2.2,1.08,2.95.72.75,1.82,1.28,3.3,1.58l2.61.55c.85.19,1.44.41,1.78.67.34.26.51.62.51,1.06,0,.52-.24.96-.72,1.31-.48.35-1.28.52-2.4.52-.74,0-1.48-.08-2.23-.25-.75-.17-1.44-.43-2.07-.79-.37-.19-.71-.24-1.01-.17-.3.07-.55.22-.74.46-.19.24-.31.51-.35.82-.04.31.01.61.15.91.14.3.38.54.72.73.48.28,1.02.51,1.63.69.61.18,1.25.33,1.92.43.67.1,1.33.15,1.98.15,1.02,0,1.93-.12,2.75-.36.82-.24,1.52-.58,2.1-1.03.59-.45,1.03-.98,1.34-1.61.31-.62.46-1.32.46-2.09,0-1.17-.37-2.12-1.11-2.83-.74-.72-1.87-1.24-3.38-1.56Z"/>
      <path class="st0" d="M724.77,646.33c-.57,0-1.01.15-1.32.46-.31.31-.46.76-.46,1.36v7.89c0,1.33-.3,2.32-.89,2.99-.59.67-1.46,1.01-2.6,1.01s-2.01-.34-2.61-1.01-.9-1.67-.9-2.99v-7.89c0-.6-.15-1.06-.46-1.36-.31-.31-.75-.46-1.32-.46s-1.03.15-1.34.46c-.31.31-.46.76-.46,1.36v7.86c0,1.17.15,2.2.45,3.09.3.89.75,1.62,1.35,2.21.6.59,1.35,1.03,2.23,1.33.89.3,1.91.45,3.06.45,1.54,0,2.83-.26,3.87-.79,1.04-.52,1.83-1.31,2.36-2.37.53-1.06.8-2.36.8-3.92v-7.86c0-.6-.15-1.06-.45-1.36-.3-.31-.74-.46-1.31-.46Z"/>
      <path class="st0" d="M752.54,646.33c-.54,0-.95.15-1.24.45s-.43.72-.43,1.26v8.87l-7.49-9.54c-.29-.37-.55-.64-.77-.8-.22-.16-.54-.24-.96-.24-.48,0-.86.15-1.14.46-.29.31-.43.76-.43,1.34v13.18c0,.55.14.98.43,1.28.29.3.7.45,1.24.45s.97-.15,1.25-.45.42-.73.42-1.28v-8.9l7.49,9.57c.29.37.57.64.82.81.25.17.6.25,1.03.25s.8-.15,1.06-.45.39-.71.39-1.21v-13.34c0-.54-.14-.96-.43-1.26-.29-.3-.7-.45-1.24-.45Z"/>
      <path class="st0" d="M777.65,646.54h-7.91c-.6,0-1.06.16-1.39.49s-.49.79-.49,1.39v12.74c0,.62.16,1.09.47,1.41.32.32.77.49,1.35.49,1.17,0,1.76-.63,1.76-1.9v-5.04h5.69c.46,0,.82-.12,1.06-.37.25-.25.37-.59.37-1.04s-.12-.79-.37-1.03c-.25-.24-.6-.36-1.06-.36h-5.69v-3.98h6.2c.46,0,.81-.12,1.05-.36.24-.24.36-.59.36-1.05s-.12-.79-.36-1.03c-.24-.24-.59-.36-1.05-.36Z"/>
      <path class="st0" d="M803.02,647.32c-1.2-.69-2.62-1.04-4.26-1.04-1.2,0-2.3.2-3.3.6-.99.4-1.85.97-2.56,1.7-.71.73-1.25,1.61-1.63,2.64-.38,1.03-.57,2.18-.57,3.46,0,1.68.34,3.15,1.01,4.42.67,1.26,1.61,2.25,2.82,2.95,1.21.7,2.62,1.05,4.22,1.05,1.22,0,2.32-.2,3.31-.6.99-.4,1.83-.97,2.54-1.71.71-.74,1.26-1.63,1.64-2.66.38-1.03.58-2.19.58-3.47,0-1.68-.34-3.15-1.01-4.41-.67-1.26-1.61-2.23-2.81-2.93ZM802.57,657.56c-.35.81-.84,1.43-1.48,1.85-.64.42-1.41.64-2.32.64-1.36,0-2.41-.47-3.17-1.42-.76-.95-1.13-2.26-1.13-3.94,0-1.13.17-2.09.51-2.89.34-.8.83-1.41,1.48-1.83s1.42-.62,2.31-.62c1.37,0,2.44.47,3.19,1.4.76.93,1.13,2.25,1.13,3.94,0,1.11-.17,2.07-.52,2.88Z"/>
      <path class="st0" d="M829.78,659.81h-6.2v-11.49c0-.6-.15-1.06-.46-1.36-.31-.31-.75-.46-1.32-.46s-1.03.15-1.34.46c-.31.31-.46.76-.46,1.36v12.7c0,.57.16,1.02.47,1.34.32.32.77.49,1.35.49h7.95c.49,0,.87-.13,1.14-.39.27-.26.4-.64.4-1.13s-.14-.85-.4-1.11c-.27-.26-.65-.39-1.14-.39Z"/>
      <path class="st0" d="M856.47,648.65c-1.52-1.41-3.67-2.12-6.46-2.12h-4.51c-.6,0-1.06.16-1.39.49s-.49.79-.49,1.39v12.56c0,.6.16,1.06.49,1.39.32.32.79.49,1.39.49h4.51c1.4,0,2.64-.18,3.72-.54,1.08-.36,1.99-.89,2.73-1.58.74-.69,1.31-1.55,1.7-2.56.39-1.01.59-2.17.59-3.48,0-2.61-.76-4.61-2.28-6.02ZM854.68,656.98c-.22.66-.54,1.2-.97,1.63-.43.43-.97.76-1.62.97-.65.22-1.41.32-2.29.32h-2.59v-10.43h2.59c1.73,0,3.03.43,3.9,1.28.87.86,1.31,2.16,1.31,3.92,0,.88-.11,1.65-.32,2.3Z"/>
    </g>
  </g>
</svg>